<svg xmlns="http://www.w3.org/2000/svg" width="24" height="24" fill="none" viewBox="0 0 24 24">
  <path fill="#fff" d="M18.25 6.5a.76.76 0 0 1 .75.75.74.74 0 0 1-.75.75h-.375l-.75 10.156c-.094 1.063-.938 1.844-2 1.844H8.844c-1.063 0-1.906-.781-2-1.844L6.094 8H5.75A.722.722 0 0 1 5 7.25a.74.74 0 0 1 .75-.75h2.156l1.157-1.719A1.792 1.792 0 0 1 10.53 4h2.906c.594 0 1.157.313 1.47.781L16.061 6.5h2.188Zm-7.719-1a.263.263 0 0 0-.219.125L9.72 6.5h4.531l-.594-.875a.263.263 0 0 0-.219-.125h-2.906ZM16.375 8H7.594l.75 10.063c.031.25.25.437.5.437h6.281c.25 0 .469-.188.5-.438L16.375 8Z"/>
</svg>
