<svg xmlns="http://www.w3.org/2000/svg" width="24" height="24" fill="none" viewBox="0 0 24 24">
  <path fill="#649BE9" d="M8.25 11c.398 0 .75.352.75.75v5.203c0 .399-.352.727-.75.727h-1.5a.736.736 0 0 1-.75-.727v-5.226c0-.399.328-.727.75-.727h1.5Zm9.75.82c0 .563-.305 1.032-.727 1.313.024.14.047.258.047.375 0 .539-.28 1.008-.68 1.289v.21c0 .54-.257 1.009-.68 1.29a1.543 1.543 0 0 1-1.546 1.453h-1.242a3.854 3.854 0 0 1-2.344-.773l-.867-.633a.612.612 0 0 1-.234-.469c0-.281.257-.563.585-.563a.56.56 0 0 1 .329.118l.867.656a2.79 2.79 0 0 0 1.664.562h1.242a.46.46 0 0 0 .445-.445c0-.094-.046-.117-.046-.234 0-.633.703-.422.703-.961 0-.211-.141-.258-.141-.516 0-.703.82-.398.82-.984 0-.305-.28-.305-.28-.68a.58.58 0 0 1 .538-.562c.235 0 .422-.211.422-.446 0-.234-.21-.422-.469-.445h-3.21c-.305 0-.563-.21-.563-.54 0-.093.023-.187.07-.28.422-.75.61-1.5.61-1.688 0-.187-.141-.469-.54-.469-.773 0-.328 1.43-2.132 2.86a.438.438 0 0 1-.329.117.555.555 0 0 1-.562-.563c0-.632.656-.28 1.406-2.18.235-.609.54-1.359 1.617-1.359 1.032 0 1.665.797 1.665 1.594 0 .305-.141.82-.352 1.406h2.344c.843 0 1.57.704 1.57 1.547Z"/>
</svg>
