<svg xmlns="http://www.w3.org/2000/svg" width="24" height="24" fill="none" viewBox="0 0 24 24">
  <path fill="#fff" d="M0 0h24v24H0z"/>
  <path fill="#A0A6BF" d="m8.133 13.578 5.937-5.937a1.261 1.261 0 0 1 1.778 0l.761.761c.059.059.118.137.157.196a1.246 1.246 0 0 1-.157 1.582l-5.937 5.937c-.02.02-.059.04-.078.078-.196.157-.41.274-.645.352l-2.363.683a.399.399 0 0 1-.45-.117.443.443 0 0 1-.136-.449l.703-2.363a1.69 1.69 0 0 1 .43-.723Zm.469.996-.45 1.524 1.524-.45a.828.828 0 0 0 .332-.195l4.473-4.473-1.231-1.21-4.453 4.472c-.02 0-.02.02-.04.04a.705.705 0 0 0-.155.292Z"/>
</svg>
