<svg xmlns="http://www.w3.org/2000/svg" width="38" height="38" fill="none" viewBox="0 0 38 38">
  <path fill="#649BE9" d="M19 3.75c8.262 0 15 6.738 15 15 0 8.32-6.738 15-15 15-8.32 0-15-6.68-15-15 0-8.262 6.68-15 15-15Zm0 27.188c6.68 0 12.188-5.45 12.188-12.188 0-6.68-5.508-12.188-12.188-12.188-6.738 0-12.188 5.508-12.188 12.188A12.18 12.18 0 0 0 19 30.938Zm0-7.5c.996 0 1.875.82 1.875 1.875 0 1.054-.879 1.875-1.875 1.875-1.113 0-1.875-.82-1.875-1.875A1.85 1.85 0 0 1 19 23.438Zm1.934-12.188c2.343 0 4.16 1.816 4.101 4.102 0 1.406-.762 2.753-1.992 3.515l-2.637 1.64v.118c0 .762-.644 1.406-1.406 1.406a1.426 1.426 0 0 1-1.406-1.406v-.938c0-.468.234-.937.703-1.23l3.34-1.992c.41-.235.644-.645.644-1.113 0-.704-.644-1.29-1.406-1.29h-2.988c-.703 0-1.23.586-1.23 1.29 0 .761-.645 1.406-1.407 1.406a1.426 1.426 0 0 1-1.406-1.406 4.076 4.076 0 0 1 4.101-4.102h2.989Z"/>
</svg>
